<svg width="150" height="150" viewBox="0 0 150 150" fill="none" xmlns="http://www.w3.org/2000/svg">
<circle cx="75" cy="75" r="73.5" fill="#00909D" stroke="#F5F5F5" stroke-width="3"/>
<path d="M75 43.752C66.4512 43.752 58.6398 49.8485 58.6398 62.3787V69.3327C55.0869 69.8229 53.3092 72.1209 53.3092 76.471V98.9892C53.3092 103.982 55.6072 106.249 60.2031 106.249H89.7968C94.3927 106.249 96.6907 103.982 96.6907 98.9892V76.471C96.6907 72.1209 94.913 69.8229 91.3602 69.334V62.3787C91.3602 49.8485 83.5474 43.752 75 43.752ZM63.5729 61.7043C63.5729 53.1568 68.6577 48.4694 75 48.4694C81.3108 48.4694 86.427 53.1568 86.427 61.7043V69.2099H63.5729V61.7043ZM89.6439 73.8358C91.0844 73.8358 91.7575 74.4502 91.7575 76.1338V99.2951C91.7575 101.01 91.0844 101.654 89.6439 101.654H60.356C58.9469 101.654 58.2424 101.01 58.2424 99.2951V76.1338C58.2424 74.4489 58.9469 73.8358 60.356 73.8358H89.6439Z" fill="#F5F5F5"/>
</svg>
